#!OML:ASF F:\VICON\USERDATA\INSTALL\rory3\rory3.ASF
:FULLY-SPECIFIED
:DEGREES
2171
root 0.296118 17.4561 0.601798 4.15236 1.61085 -0.0694925
lowerback -3.84279 -0.457707 -1.92263
upperback -4.88484 -0.562528 0.701301
thorax -2.84723 -0.205965 1.79135
lowerneck -9.75269 -11.8107 -17.0684
upperneck 25.5572 -17.9519 15.2145
head 13.2316 -8.21698 5.79993
rclavicle 3.47873e-016 -6.36111e-015
rhumerus 37.4137 6.75473 -19.5297
rradius 109.257
rwrist -74.8353
rhand -8.9399 1.00685
rfingers 7.12502
rthumb 17.0043 -28.2689
lclavicle 3.47873e-016 -6.36111e-015
lhumerus 47.4763 -12.4853 15.0913
lradius 105.966
lwrist 104.285
lhand -3.08831 28.6252
lfingers 7.12502
lthumb 22.6292 57.3187
rfemur 0 0 0
rtibia 0
rfoot 0 0
rtoes 0
lfemur -4.59637 -17.3574 -18.5271
ltibia 14.0587
lfoot -13.3482 11.4979
ltoes -14.8828
2172
root 0.297698 17.4544 0.605519 4.10555 1.61226 -0.103852
lowerback -3.86857 -0.452786 -1.8385
upperback -4.85462 -0.556524 0.713307
thorax -2.80203 -0.206197 1.7562
lowerneck -9.80443 -11.8287 -17.0961
upperneck 25.5727 -17.9736 15.2316
head 13.259 -8.2242 5.80453
rclavicle 5.96354e-016 -2.5842e-015
rhumerus 37.5491 7.13614 -18.8591
rradius 109.264
rwrist -74.6148
rhand -8.80449 0.888027
rfingers 7.12502
rthumb 17.1346 -28.3764
lclavicle 5.96354e-016 -2.5842e-015
lhumerus 47.528 -12.7365 14.5634
lradius 106.072
lwrist 104.027
lhand -2.99882 28.6995
lfingers 7.12502
lthumb 22.7151 57.3825
rfemur 0 0 0
rtibia 0
rfoot 0 0
rtoes 0
lfemur -4.55779 -17.3548 -18.5148
ltibia 14.1126
lfoot -13.3185 11.6301
ltoes -16.212
2173
root 0.299384 17.4529 0.60865 4.05946 1.63254 -0.179191
lowerback -3.90482 -0.4594 -1.69117
upperback -4.81926 -0.566853 0.728466
thorax -2.74529 -0.216642 1.68849
lowerneck -9.84883 -11.8231 -17.2067
upperneck 25.5677 -17.9715 15.3464
head 13.2934 -8.2201 5.86704
rclavicle -6.7711e-015 9.83984e-015
rhumerus 37.682 7.57653 -18.1458
rradius 109.379
rwrist -74.388
rhand -8.77528 0.940164
rfingers 7.12502
rthumb 17.1627 -28.3218
lclavicle -6.7711e-015 9.83984e-015
lhumerus 47.5399 -12.9135 14.1026
lradius 106.234
lwrist 103.908
lhand -2.71777 28.5959
lfingers 7.12502
lthumb 22.9848 57.2455
rfemur 0 0 0
rtibia 0
rfoot 0 0
rtoes 0
lfemur -4.54333 -17.3672 -18.4511
ltibia 14.2001
lfoot -13.4219 11.6645
ltoes -15.879
2174
root 0.300939 17.4522 0.61201 4.00893 1.65509 -0.156553
lowerback -3.94099 -0.460698 -1.63544
upperback -4.78205 -0.569367 0.702333
thorax -2.68686 -0.22099 1.62974
lowerneck -9.84375 -11.8252 -17.3922
upperneck 25.5082 -18.0001 15.573
head 13.3244 -8.22921 5.98152
rclavicle -5.97596e-015 4.67144e-015
rhumerus 37.7276 8.04758 -17.4091
rradius 109.547
rwrist -74.0989
rhand -8.74296 1.05996
rfingers 7.12502
rthumb 17.1938 -28.1993
lclavicle -5.97596e-015 4.67144e-015
lhumerus 47.5653 -13.0899 13.7109
lradius 106.413
lwrist 103.897
lhand -2.50096 28.395
lfingers 7.12502
lthumb 23.1928 57.0187
rfemur 0 0 0
rtibia 0
rfoot 0 0
rtoes 0
lfemur -4.5372 -17.3901 -18.4984
ltibia 14.3218
lfoot -13.458 11.5646
ltoes -15.0794
2175
root 0.301726 17.4511 0.615049 3.94866 1.67329 -0.19947
lowerback -3.95574 -0.463179 -1.51812
upperback -4.74893 -0.574929 0.680282
thorax -2.64495 -0.228432 1.54081
lowerneck -9.85642 -11.8087 -17.3512
upperneck 25.4976 -17.9933 15.6129
head 13.3216 -8.21807 5.99196
rclavicle 3.36692e-015 2.68359e-015
rhumerus 37.7299 8.53872 -16.7623
rradius 109.719
rwrist -73.6474
rhand -8.65275 1.18893
rfingers 7.12502
rthumb 17.2807 -28.0628
lclavicle 3.36692e-015 2.68359e-015
lhumerus 47.5907 -13.2696 13.3971
lradius 106.539
lwrist 103.853
lhand -2.404 28.519
lfingers 7.12502
lthumb 23.2859 57.1309
rfemur 0 0 0
rtibia 0
rfoot 0 0
rtoes 0
lfemur -4.52595 -17.4032 -18.4719
ltibia 14.455
lfoot -13.4832 11.5589
ltoes -15.1894
2176
root 0.303024 17.4498 0.618076 3.86662 1.6623 -0.242891
lowerback -3.97507 -0.430392 -1.39703
upperback -4.6642 -0.533757 0.639814
thorax -2.54886 -0.213654 1.43129
lowerneck -9.92777 -11.8419 -17.204
upperneck 25.4114 -18.0467 15.6108
head 13.2947 -8.22437 5.94885
rclavicle 3.4601e-015 -5.51627e-015
rhumerus 37.6936 8.90218 -16.2045
rradius 109.9
rwrist -73.2134
rhand -8.42251 1.44868
rfingers 7.12502
rthumb 17.5023 -27.7834
lclavicle 3.4601e-015 -5.51627e-015
lhumerus 47.6806 -13.3707 13.1959
lradius 106.68
lwrist 103.755
lhand -2.19573 28.4067
lfingers 7.12502
lthumb 23.4857 56.9932
rfemur 0 0 0
rtibia 0
rfoot 0 0
rtoes 0
lfemur -4.47053 -17.3886 -18.4617
ltibia 14.563
lfoot -13.5339 11.6175
ltoes -15.6493
2177
root 0.302177 17.4489 0.619496 3.80164 1.68163 -0.309763
lowerback -3.96343 -0.411946 -1.30899
upperback -4.60701 -0.510832 0.642552
thorax -2.49739 -0.205537 1.3849
lowerneck -10.0006 -11.8794 -17.1904
upperneck 25.3563 -18.1115 15.6926
head 13.3101 -8.23975 5.96022
rclavicle 3.01283e-015 -5.96354e-016
rhumerus 37.6676 9.28176 -15.6553
rradius 110.09
rwrist -72.6695
rhand -8.15911 1.81346
rfingers 7.12502
rthumb 17.7557 -27.3959
lclavicle 3.01283e-015 -5.96354e-016
lhumerus 47.6821 -13.4404 13.1208
lradius 106.859
lwrist 103.65
lhand -1.7875 28.2422
lfingers 7.12502
lthumb 23.8772 56.778
rfemur 0 0 0
rtibia 0
rfoot 0 0
rtoes 0
lfemur -4.45434 -17.3999 -18.395
ltibia 14.6495
lfoot -13.6205 11.5401
ltoes -15.335
2178
root 0.29991 17.4494 0.620912 3.75795 1.71422 -0.376132
lowerback -3.96723 -0.430309 -1.26469
upperback -4.58844 -0.535355 0.685918
thorax -2.47515 -0.218664 1.40409
lowerneck -9.97685 -11.8708 -17.2805
upperneck 25.3102 -18.1046 15.7831
head 13.3066 -8.23834 6.01271
rclavicle 2.09966e-015 -6.85807e-015
rhumerus 37.6912 9.72706 -15.2373
rradius 110.331
rwrist -72.1786
rhand -7.94432 2.07723
rfingers 7.12502
rthumb 17.9624 -27.1133
lclavicle 2.09966e-015 -6.85807e-015
lhumerus 47.5607 -13.5338 13.0908
lradius 107.025
lwrist 103.565
lhand -1.61952 28.1565
lfingers 7.12502
lthumb 24.0383 56.6711
rfemur 0 0 0
rtibia 0
rfoot 0 0
rtoes 0
lfemur -4.44957 -17.4235 -18.3159
ltibia 14.7049
lfoot -13.6851 11.5414
ltoes -15.6468
2179
root 0.298918 17.4473 0.62259 3.72048 1.76983 -0.340318
lowerback -3.92986 -0.464791 -1.31979
upperback -4.62138 -0.580365 0.705393
thorax -2.5281 -0.238575 1.45475
lowerneck -9.88382 -11.8503 -17.3046
upperneck 25.2708 -18.0694 15.7604
head 13.2627 -8.23327 6.01803
rclavicle 5.25537e-015 1.78906e-015
rhumerus 37.643 10.2165 -14.8295
rradius 110.593
rwrist -71.692
rhand -7.90144 2.35511
rfingers 7.12502
rthumb 18.0037 -26.8316
lclavicle 5.25537e-015 1.78906e-015
lhumerus 47.4019 -13.6889 13.0822
lradius 107.145
lwrist 103.391
lhand -1.44139 28.0276
lfingers 7.12502
lthumb 24.2091 56.5195
rfemur 0 0 0
rtibia 0
rfoot 0 0
rtoes 0
lfemur -4.41723 -17.479 -18.3608
ltibia 14.7322
lfoot -13.6501 11.6535
ltoes -16.4911
